# xmcd
#
# Track frame offsets: 
#        150
#        18612
#        27052
#        41715
#        57225
#        69990
#        90765
#        103192
#        111927
#        123875
#
# Disc length: 1915 seconds
#
# Revision: 4
# Processed by: cddbd v1.5.2PL0 Copyright (c) Steve Scherf et al.
# Submitted via: ExactAudioCopyFreeDBPlugin 1.0
#
DISCID=7907790a
DTITLE=Dolly Parton - Home for Christmas
DYEAR=1990
DGENRE=Holiday
TTITLE0=First Noël
TTITLE1=Santa Claus is Coming to Town
TTITLE2=I'll Be Home for Christmas
TTITLE3=Rudolph the Red-Nosed Reindeer
TTITLE4=Go Tell It on the Mountain
TTITLE5=The Little Drummer Boy
TTITLE6=We Three Kings
TTITLE7=Jingle Bells
TTITLE8=O Little Town of Bethlehem
TTITLE9=Joy to the World
EXTD=
EXTT0=
EXTT1=
EXTT2=
EXTT3=
EXTT4=
EXTT5=
EXTT6=
EXTT7=
EXTT8=
EXTT9=
PLAYORDER=
